<svg width="83" height="83" viewBox="0 0 83 83" fill="none" xmlns="http://www.w3.org/2000/svg">
<path d="M55.8601 0H27.1399C12.151 0 0 12.151 0 27.1399V55.8601C0 70.849 12.151 83 27.1399 83H55.8601C70.849 83 83 70.849 83 55.8601V27.1399C83 12.151 70.849 0 55.8601 0Z" fill="#F0BDF3"/>
<path d="M16.7006 58.003V23.1414H23.6082V52.4122H38.9799L38.2497 58.003H16.7006Z" fill="#262223"/>
<path d="M45.8157 58.0032V53.394H49.5748V35.9033H45.8157V31.3182H54.6388L55.8719 37.4477C56.8416 35.185 58.0747 33.4731 59.5472 32.3118C61.0198 31.1625 62.8874 30.5879 65.1141 30.5879C65.9761 30.5879 66.7303 30.6597 67.4007 30.7914C68.0711 30.9231 68.6936 31.1027 69.3042 31.3182L67.3169 36.909C66.7901 36.7773 66.2993 36.6695 65.8324 36.5977C65.3655 36.5259 64.8268 36.49 64.2402 36.49C62.3965 36.49 60.7803 37.2083 59.4156 38.6449C58.0508 40.0815 56.9853 42.0329 56.2311 44.4871V53.406H61.5465V58.0151H45.8157V58.0032ZM63.6895 41.7096V34.6224L64.5993 31.2942H69.3162L68.131 41.7096H63.6895Z" fill="#262223"/>
</svg>
