<svg width="83" height="83" viewBox="0 0 83 83" fill="none" xmlns="http://www.w3.org/2000/svg">
<g clip-path="url(#clip0_9_169)">
<path d="M55.8601 0H27.1399C12.151 0 0 12.151 0 27.1399V55.8601C0 70.849 12.151 83 27.1399 83H55.8601C70.849 83 83 70.849 83 55.8601V27.1399C83 12.151 70.849 0 55.8601 0Z" fill="#F0BDF3"/>
<path d="M39.9617 34.2511C39.9617 36.9567 39.387 39.1715 38.2377 40.8954C37.0884 42.6194 35.4723 43.8884 33.4131 44.7024C31.342 45.5165 28.9596 45.9236 26.254 45.9236H22.2435V58.003H15.3358V23.1414H25.5956C30.1209 23.1414 33.6406 24.0632 36.1666 25.8829C38.6927 27.7146 39.9617 30.504 39.9617 34.2511ZM32.8026 34.311C32.8026 32.8624 32.5272 31.6892 31.9885 30.7913C31.4498 29.8934 30.6477 29.235 29.6061 28.816C28.5646 28.3969 27.3075 28.1815 25.847 28.1815H22.2435V40.8116H26.0505C27.4273 40.8116 28.6125 40.5961 29.6181 40.1652C30.6117 39.7342 31.4019 39.0398 31.9645 38.0821C32.5272 37.1243 32.8145 35.8673 32.8145 34.299L32.8026 34.311Z" fill="#262223"/>
<path d="M55.7164 53.8368C57.2847 53.8368 58.5298 53.5614 59.4875 53.0227C60.4333 52.472 60.9122 51.7058 60.9122 50.7121C60.9122 50.0537 60.7565 49.503 60.4453 49.0481C60.134 48.5932 59.5234 48.1741 58.6136 47.7791C57.7037 47.384 56.339 46.9411 54.5312 46.4502C52.8193 46.0073 51.3228 45.4685 50.0299 44.8221C48.7489 44.1756 47.7432 43.3376 47.0249 42.32C46.3066 41.3024 45.9595 39.9975 45.9595 38.4411C45.9595 36.8848 46.3904 35.5081 47.2644 34.3229C48.1383 33.1377 49.4073 32.2158 51.0594 31.5454C52.7115 30.887 54.7108 30.5518 57.0453 30.5518C59.3798 30.5518 61.3312 30.8511 63.0431 31.4496C64.7551 32.0482 66.2276 32.7905 67.4487 33.6764L64.7311 37.7348C63.6537 37.0404 62.4924 36.4897 61.2354 36.0588C59.9784 35.6278 58.6375 35.4123 57.1889 35.4123C55.6206 35.4123 54.4833 35.6397 53.777 36.0947C53.0707 36.5496 52.6995 37.1841 52.6995 37.9862C52.6995 38.5608 52.8791 39.0397 53.2383 39.4348C53.5974 39.8298 54.2559 40.2129 55.2016 40.5721C56.1474 40.9312 57.5122 41.3622 59.272 41.865C61.0079 42.3319 62.5164 42.8946 63.7973 43.5291C65.0783 44.1636 66.0839 45.0136 66.7903 46.0791C67.4966 47.1326 67.8438 48.5213 67.8438 50.2333C67.8438 52.1607 67.2811 53.7649 66.1558 55.022C65.0304 56.279 63.5459 57.2128 61.7023 57.8353C59.8586 58.4459 57.8713 58.7572 55.7164 58.7572C53.1904 58.7572 50.9996 58.398 49.108 57.6677C47.2285 56.9494 45.6243 56.0156 44.3193 54.8663L47.7672 50.9875C48.8087 51.8135 49.9939 52.4959 51.3348 53.0347C52.6756 53.5734 54.1242 53.8368 55.6805 53.8368H55.7164Z" fill="#262223"/>
</g>
<defs>
<clipPath id="clip0_9_169">
<rect width="83" height="83" fill="white"/>
</clipPath>
</defs>
</svg>
